<svg width="50" height="50" viewBox="0 0 50 50" fill="none" xmlns="http://www.w3.org/2000/svg">
<path d="M41.8267 39.9979C38.8332 43.355 34.9022 45.7379 30.5411 46.8389C26.1801 47.94 21.5892 47.7087 17.3608 46.1749C13.1325 44.6411 9.461 41.8753 6.82006 38.2343C4.17912 34.5934 2.69005 30.2445 2.54503 25.7489C2.40001 21.2534 3.60573 16.8175 6.00652 13.0139C8.40731 9.21034 11.8929 6.21363 16.0136 4.41053C20.1343 2.60744 24.7008 2.08074 29.1237 2.89845C33.5467 3.71616 37.623 5.84071 40.8267 8.99791H42.8867C39.6086 5.33377 35.2843 2.76478 30.4986 1.63838C25.7129 0.511979 20.6967 0.882521 16.1285 2.69987C11.5602 4.51723 7.66034 7.69373 4.95623 11.7997C2.25211 15.9058 0.874264 20.7432 1.00902 25.6578C1.14378 30.5724 2.78466 35.3271 5.70971 39.2788C8.63475 43.2304 12.7028 46.1885 17.3638 47.7528C22.0247 49.3171 27.0537 49.4122 31.7705 48.0252C36.4873 46.6382 40.6643 43.8361 43.7366 39.9979H41.8267Z" fill="#055346"/>
</svg>
