<svg width="28" height="28" viewBox="0 0 28 28" fill="none" xmlns="http://www.w3.org/2000/svg">
<path d="M14 4.98369C16.9373 4.98369 17.2849 4.99504 18.4451 5.04787C19.5175 5.09678 20.0999 5.2758 20.4877 5.42644C20.9661 5.60258 21.3988 5.88386 21.754 6.24952C22.1196 6.6047 22.4009 7.03743 22.577 7.5158C22.7277 7.90354 22.9067 8.48603 22.9556 9.55843C23.0084 10.7186 23.0198 11.0662 23.0198 14.0035C23.0198 16.9408 23.0084 17.2884 22.9556 18.4486C22.9067 19.521 22.7277 20.1034 22.577 20.4912C22.3938 20.9655 22.1135 21.3962 21.754 21.7557C21.3944 22.1152 20.9637 22.3956 20.4894 22.5788C20.1017 22.7294 19.5192 22.9085 18.4468 22.9574C17.2871 23.0102 16.9391 23.0216 14.0017 23.0216C11.0644 23.0216 10.7164 23.0102 9.55668 22.9574C8.48428 22.9085 7.90179 22.7294 7.51405 22.5788C7.03568 22.4027 6.60295 22.1214 6.24778 21.7557C5.88211 21.4005 5.60084 20.9678 5.4247 20.4894C5.27405 20.1017 5.09503 19.5192 5.04613 18.4468C4.99329 17.2866 4.98194 16.9391 4.98194 14.0017C4.98194 11.0644 4.99329 10.7169 5.04613 9.55668C5.09503 8.48428 5.27405 7.90179 5.4247 7.51405C5.60084 7.03568 5.88211 6.60295 6.24778 6.24778C6.60295 5.88211 7.03568 5.60084 7.51405 5.4247C7.90179 5.27406 8.48428 5.09503 9.55668 5.04613C10.7169 4.99329 11.0644 4.98194 14.0017 4.98194L14 4.98369ZM14.0017 3C11.0142 3 10.6396 3.01266 9.4663 3.06637C8.29303 3.12008 7.49396 3.3074 6.79533 3.57899C6.06115 3.85537 5.396 4.28837 4.84614 4.84789C4.28663 5.39775 3.85362 6.0629 3.57725 6.79708C3.30565 7.49571 3.11964 8.29652 3.06637 9.46717C3.0131 10.6378 3 11.0142 3 14.0017C3 16.9893 3.01266 17.3639 3.06637 18.5372C3.12008 19.7105 3.30565 20.5078 3.57725 21.2064C3.85373 21.9403 4.28673 22.6051 4.84614 23.1547C5.39581 23.7146 6.06101 24.1478 6.79533 24.4241C7.49396 24.6961 8.29477 24.8821 9.46542 24.9354C10.6361 24.9886 11.0133 25.0017 14.0009 25.0017C16.9884 25.0017 17.363 24.9891 18.5363 24.9354C19.7096 24.8817 20.506 24.6961 21.2047 24.4241C21.9356 24.1416 22.5995 23.7095 23.1536 23.1554C23.7077 22.6013 24.1399 21.9374 24.4223 21.2064C24.6943 20.5078 24.8804 19.707 24.9336 18.5363C24.9869 17.3657 25 16.9884 25 14.0009C25 11.0133 24.9873 10.6387 24.9336 9.46543C24.8799 8.29216 24.6943 7.49571 24.4223 6.79708C24.1462 6.06315 23.7133 5.39827 23.1539 4.84876C22.6041 4.28893 21.9389 3.85562 21.2047 3.57899C20.506 3.3074 19.7052 3.12139 18.5346 3.06812C17.3639 3.01485 16.9875 3.00175 14 3.00175L14.0017 3Z" fill="#F9EFE6"/>
<path d="M14 8.35352C12.8829 8.35352 11.7908 8.68479 10.8619 9.30545C9.93303 9.92611 9.20905 10.8083 8.78153 11.8404C8.35401 12.8725 8.24215 14.0082 8.4601 15.1039C8.67805 16.1996 9.21601 17.2061 10.006 17.996C10.7959 18.786 11.8024 19.324 12.8981 19.5419C13.9938 19.7598 15.1295 19.648 16.1616 19.2205C17.1937 18.793 18.0759 18.069 18.6965 17.1401C19.3172 16.2112 19.6485 15.1191 19.6485 14.002C19.6485 13.2602 19.5025 12.5257 19.2186 11.8403C18.9348 11.155 18.5187 10.5323 17.9942 10.0078C17.4697 9.48326 16.847 9.0672 16.1617 8.78336C15.4763 8.49952 14.7418 8.35346 14 8.35352V8.35352ZM14 17.6698C13.2746 17.6698 12.5655 17.4547 11.9623 17.0517C11.3591 16.6486 10.889 16.0758 10.6114 15.4056C10.3338 14.7354 10.2611 13.9979 10.4027 13.2864C10.5442 12.5749 10.8935 11.9214 11.4065 11.4084C11.9194 10.8955 12.573 10.5461 13.2845 10.4046C13.996 10.2631 14.7334 10.3357 15.4036 10.6133C16.0739 10.891 16.6467 11.3611 17.0497 11.9642C17.4527 12.5674 17.6679 13.2765 17.6679 14.002C17.6679 14.9747 17.2814 15.9077 16.5936 16.5955C15.9057 17.2834 14.9728 17.6698 14 17.6698Z" fill="#F9EFE6"/>
<path d="M19.8727 9.45014C20.6017 9.45014 21.1927 8.85917 21.1927 8.13016C21.1927 7.40116 20.6017 6.81018 19.8727 6.81018C19.1437 6.81018 18.5527 7.40116 18.5527 8.13016C18.5527 8.85917 19.1437 9.45014 19.8727 9.45014Z" fill="#F9EFE6"/>
</svg>
