<svg width="28" height="28" viewBox="0 0 28 28" fill="none" xmlns="http://www.w3.org/2000/svg">
<path d="M22.6506 10.203C22.6633 10.3862 22.6633 10.5694 22.6633 10.7543C22.6633 16.387 18.3752 22.8833 10.5343 22.8833V22.8799C8.21802 22.8833 5.9499 22.2198 4 20.9688C4.3368 21.0094 4.67529 21.0296 5.01462 21.0305C6.93413 21.0321 8.79877 20.3881 10.3089 19.2021C8.48476 19.1675 6.88517 17.9781 6.32637 16.2418C6.96536 16.3651 7.62377 16.3397 8.25094 16.1684C6.26222 15.7666 4.83145 14.0193 4.83145 11.99C4.83145 11.9715 4.83145 11.9537 4.83145 11.936C5.42401 12.2661 6.08749 12.4492 6.76615 12.4695C4.89307 11.2177 4.3157 8.72585 5.44681 6.77765C7.6111 9.44082 10.8044 11.0598 14.2323 11.2312C13.8888 9.7506 14.3581 8.19913 15.4656 7.15834C17.1825 5.5444 19.8828 5.62712 21.4967 7.3432C22.4514 7.15496 23.3664 6.80466 24.2038 6.30832C23.8856 7.29509 23.2196 8.13329 22.3299 8.66592C23.1748 8.56632 24.0004 8.3401 24.7778 7.99485C24.2055 8.85247 23.4846 9.59951 22.6506 10.203Z" fill="#F9EFE6"/>
</svg>
